<svg width="382" height="64" viewBox="0 0 382 64" fill="none" xmlns="http://www.w3.org/2000/svg">
<path d="M7.616 61C7.51333 60.664 7.39667 60.3187 7.266 59.964C7.14467 59.6093 7.02333 59.2547 6.902 58.9H3.122C3.00067 59.2547 2.87467 59.6093 2.744 59.964C2.62267 60.3187 2.51067 60.664 2.408 61H0.14C0.504 59.9547 0.849333 58.9887 1.176 58.102C1.50267 57.2153 1.82 56.38 2.128 55.596C2.44533 54.812 2.75333 54.07 3.052 53.37C3.36 52.6607 3.67733 51.97 4.004 51.298H6.09C6.40733 51.97 6.72 52.6607 7.028 53.37C7.336 54.07 7.644 54.812 7.952 55.596C8.26933 56.38 8.59133 57.2153 8.918 58.102C9.24467 58.9887 9.59 59.9547 9.954 61H7.616ZM4.998 53.496C4.95133 53.636 4.88133 53.8273 4.788 54.07C4.69467 54.3127 4.58733 54.5927 4.466 54.91C4.34467 55.2273 4.20933 55.5773 4.06 55.96C3.92 56.3427 3.77533 56.744 3.626 57.164H6.384C6.23467 56.744 6.09 56.3427 5.95 55.96C5.81 55.5773 5.67467 55.2273 5.544 54.91C5.42267 54.5927 5.31533 54.3127 5.222 54.07C5.12867 53.8273 5.054 53.636 4.998 53.496ZM10.5695 57.318C10.5695 56.786 10.6535 56.2867 10.8215 55.82C10.9988 55.344 11.2508 54.9333 11.5775 54.588C11.9041 54.2333 12.3008 53.9533 12.7675 53.748C13.2341 53.5427 13.7661 53.44 14.3635 53.44C14.7555 53.44 15.1148 53.4773 15.4415 53.552C15.7681 53.6173 16.0855 53.7153 16.3935 53.846L15.9595 55.512C15.7635 55.4373 15.5488 55.372 15.3155 55.316C15.0821 55.26 14.8208 55.232 14.5315 55.232C13.9155 55.232 13.4535 55.4233 13.1455 55.806C12.8468 56.1887 12.6975 56.6927 12.6975 57.318C12.6975 57.9807 12.8375 58.494 13.1175 58.858C13.4068 59.222 13.9061 59.404 14.6155 59.404C14.8675 59.404 15.1381 59.3807 15.4275 59.334C15.7168 59.2873 15.9828 59.2127 16.2255 59.11L16.5195 60.818C16.2768 60.9207 15.9735 61.0093 15.6095 61.084C15.2455 61.1587 14.8441 61.196 14.4055 61.196C13.7335 61.196 13.1548 61.098 12.6695 60.902C12.1841 60.6967 11.7828 60.4213 11.4655 60.076C11.1575 59.7307 10.9288 59.3247 10.7795 58.858C10.6395 58.382 10.5695 57.8687 10.5695 57.318ZM17.214 57.318C17.214 56.786 17.298 56.2867 17.466 55.82C17.6433 55.344 17.8953 54.9333 18.222 54.588C18.5487 54.2333 18.9453 53.9533 19.412 53.748C19.8787 53.5427 20.4107 53.44 21.008 53.44C21.4 53.44 21.7593 53.4773 22.086 53.552C22.4127 53.6173 22.73 53.7153 23.038 53.846L22.604 55.512C22.408 55.4373 22.1933 55.372 21.96 55.316C21.7267 55.26 21.4653 55.232 21.176 55.232C20.56 55.232 20.098 55.4233 19.79 55.806C19.4913 56.1887 19.342 56.6927 19.342 57.318C19.342 57.9807 19.482 58.494 19.762 58.858C20.0513 59.222 20.5507 59.404 21.26 59.404C21.512 59.404 21.7827 59.3807 22.072 59.334C22.3613 59.2873 22.6273 59.2127 22.87 59.11L23.164 60.818C22.9213 60.9207 22.618 61.0093 22.254 61.084C21.89 61.1587 21.4887 61.196 21.05 61.196C20.378 61.196 19.7993 61.098 19.314 60.902C18.8287 60.6967 18.4273 60.4213 18.11 60.076C17.802 59.7307 17.5733 59.3247 17.424 58.858C17.284 58.382 17.214 57.8687 17.214 57.318ZM31.0965 57.304C31.0965 57.8827 31.0125 58.4147 30.8445 58.9C30.6765 59.376 30.4338 59.7867 30.1165 60.132C29.7992 60.468 29.4165 60.7293 28.9685 60.916C28.5298 61.1027 28.0352 61.196 27.4845 61.196C26.9432 61.196 26.4485 61.1027 26.0005 60.916C25.5618 60.7293 25.1838 60.468 24.8665 60.132C24.5492 59.7867 24.3018 59.376 24.1245 58.9C23.9472 58.4147 23.8585 57.8827 23.8585 57.304C23.8585 56.7253 23.9472 56.198 24.1245 55.722C24.3112 55.246 24.5632 54.84 24.8805 54.504C25.2072 54.168 25.5898 53.9067 26.0285 53.72C26.4765 53.5333 26.9618 53.44 27.4845 53.44C28.0165 53.44 28.5018 53.5333 28.9405 53.72C29.3885 53.9067 29.7712 54.168 30.0885 54.504C30.4058 54.84 30.6532 55.246 30.8305 55.722C31.0078 56.198 31.0965 56.7253 31.0965 57.304ZM28.9685 57.304C28.9685 56.66 28.8378 56.156 28.5765 55.792C28.3245 55.4187 27.9605 55.232 27.4845 55.232C27.0085 55.232 26.6398 55.4187 26.3785 55.792C26.1172 56.156 25.9865 56.66 25.9865 57.304C25.9865 57.948 26.1172 58.4613 26.3785 58.844C26.6398 59.2173 27.0085 59.404 27.4845 59.404C27.9605 59.404 28.3245 59.2173 28.5765 58.844C28.8378 58.4613 28.9685 57.948 28.9685 57.304ZM38.9984 60.748C38.6438 60.8507 38.1864 60.944 37.6264 61.028C37.0664 61.1213 36.4784 61.168 35.8624 61.168C35.2371 61.168 34.7144 61.084 34.2944 60.916C33.8838 60.748 33.5571 60.5147 33.3144 60.216C33.0718 59.908 32.8991 59.544 32.7964 59.124C32.6938 58.704 32.6424 58.242 32.6424 57.738V53.636H34.7284V57.486C34.7284 58.158 34.8171 58.6433 34.9944 58.942C35.1718 59.2407 35.5031 59.39 35.9884 59.39C36.1378 59.39 36.2964 59.3853 36.4644 59.376C36.6324 59.3573 36.7818 59.3387 36.9124 59.32V53.636H38.9984V60.748ZM40.9566 53.888C41.3112 53.7853 41.7686 53.692 42.3286 53.608C42.8886 53.5147 43.4766 53.468 44.0926 53.468C44.7179 53.468 45.2359 53.552 45.6466 53.72C46.0666 53.8787 46.3979 54.1073 46.6406 54.406C46.8832 54.7047 47.0559 55.0593 47.1586 55.47C47.2612 55.8807 47.3126 56.338 47.3126 56.842V61H45.2266V57.094C45.2266 56.422 45.1379 55.946 44.9606 55.666C44.7832 55.386 44.4519 55.246 43.9666 55.246C43.8172 55.246 43.6586 55.2553 43.4906 55.274C43.3226 55.2833 43.1732 55.2973 43.0426 55.316V61H40.9566V53.888ZM49.1307 51.802L51.2167 51.466V53.636H53.7227V55.372H51.2167V57.962C51.2167 58.4007 51.2914 58.7507 51.4407 59.012C51.5994 59.2733 51.912 59.404 52.3787 59.404C52.6027 59.404 52.8314 59.3853 53.0647 59.348C53.3074 59.3013 53.5267 59.2407 53.7227 59.166L54.0167 60.79C53.7647 60.8927 53.4847 60.9813 53.1767 61.056C52.8687 61.1307 52.4907 61.168 52.0427 61.168C51.4734 61.168 51.002 61.0933 50.6287 60.944C50.2554 60.7853 49.9567 60.5707 49.7327 60.3C49.5087 60.02 49.35 59.684 49.2567 59.292C49.1727 58.9 49.1307 58.466 49.1307 57.99V51.802ZM61.1087 59.222C61.2114 59.2313 61.328 59.2407 61.4587 59.25C61.5987 59.25 61.762 59.25 61.9487 59.25C63.0407 59.25 63.848 58.9747 64.3707 58.424C64.9027 57.8733 65.1687 57.1127 65.1687 56.142C65.1687 55.1247 64.9167 54.3547 64.4127 53.832C63.9087 53.3093 63.1107 53.048 62.0187 53.048C61.8694 53.048 61.7154 53.0527 61.5567 53.062C61.398 53.062 61.2487 53.0713 61.1087 53.09V59.222ZM67.4227 56.142C67.4227 56.982 67.292 57.7147 67.0307 58.34C66.7694 58.9653 66.396 59.4833 65.9107 59.894C65.4347 60.3047 64.8514 60.6127 64.1607 60.818C63.47 61.0233 62.6954 61.126 61.8367 61.126C61.4447 61.126 60.9874 61.1073 60.4647 61.07C59.942 61.042 59.4287 60.9767 58.9247 60.874V51.424C59.4287 51.3307 59.9514 51.27 60.4927 51.242C61.0434 51.2047 61.5147 51.186 61.9067 51.186C62.7374 51.186 63.4887 51.2793 64.1607 51.466C64.842 51.6527 65.4254 51.9467 65.9107 52.348C66.396 52.7493 66.7694 53.2627 67.0307 53.888C67.292 54.5133 67.4227 55.2647 67.4227 56.142ZM68.757 57.374C68.757 56.7207 68.855 56.1513 69.051 55.666C69.2563 55.1713 69.5223 54.7607 69.849 54.434C70.1756 54.1073 70.549 53.86 70.969 53.692C71.3983 53.524 71.837 53.44 72.285 53.44C73.3303 53.44 74.1563 53.762 74.763 54.406C75.3696 55.0407 75.673 55.9787 75.673 57.22C75.673 57.3413 75.6683 57.4767 75.659 57.626C75.6496 57.766 75.6403 57.892 75.631 58.004H70.899C70.9456 58.4333 71.1463 58.774 71.501 59.026C71.8556 59.278 72.3316 59.404 72.929 59.404C73.3116 59.404 73.685 59.3713 74.049 59.306C74.4223 59.2313 74.7256 59.1427 74.959 59.04L75.239 60.734C75.127 60.79 74.9776 60.846 74.791 60.902C74.6043 60.958 74.3943 61.0047 74.161 61.042C73.937 61.0887 73.6943 61.126 73.433 61.154C73.1716 61.182 72.9103 61.196 72.649 61.196C71.9863 61.196 71.4076 61.098 70.913 60.902C70.4276 60.706 70.0216 60.44 69.695 60.104C69.3776 59.7587 69.1396 59.3527 68.981 58.886C68.8316 58.4193 68.757 57.9153 68.757 57.374ZM73.657 56.576C73.6476 56.3987 73.615 56.226 73.559 56.058C73.5123 55.89 73.433 55.7407 73.321 55.61C73.2183 55.4793 73.083 55.372 72.915 55.288C72.7563 55.204 72.5556 55.162 72.313 55.162C72.0796 55.162 71.879 55.204 71.711 55.288C71.543 55.3627 71.403 55.4653 71.291 55.596C71.179 55.7267 71.0903 55.8807 71.025 56.058C70.969 56.226 70.927 56.3987 70.899 56.576H73.657ZM77.2127 51.802L79.2987 51.466V53.636H81.8047V55.372H79.2987V57.962C79.2987 58.4007 79.3734 58.7507 79.5227 59.012C79.6814 59.2733 79.9941 59.404 80.4607 59.404C80.6847 59.404 80.9134 59.3853 81.1467 59.348C81.3894 59.3013 81.6087 59.2407 81.8047 59.166L82.0987 60.79C81.8467 60.8927 81.5667 60.9813 81.2587 61.056C80.9507 61.1307 80.5727 61.168 80.1247 61.168C79.5554 61.168 79.0841 61.0933 78.7107 60.944C78.3374 60.7853 78.0387 60.5707 77.8147 60.3C77.5907 60.02 77.4321 59.684 77.3387 59.292C77.2547 58.9 77.2127 58.466 77.2127 57.99V51.802ZM86.044 59.544C86.2493 59.544 86.4453 59.5393 86.632 59.53C86.8187 59.5207 86.968 59.5067 87.08 59.488V57.906C86.996 57.8873 86.87 57.8687 86.702 57.85C86.534 57.8313 86.38 57.822 86.24 57.822C86.044 57.822 85.8573 57.836 85.68 57.864C85.512 57.8827 85.3627 57.9247 85.232 57.99C85.1013 58.0553 84.9987 58.144 84.924 58.256C84.8493 58.368 84.812 58.508 84.812 58.676C84.812 59.0027 84.9193 59.2313 85.134 59.362C85.358 59.4833 85.6613 59.544 86.044 59.544ZM85.876 53.44C86.492 53.44 87.0053 53.51 87.416 53.65C87.8267 53.79 88.1533 53.9907 88.396 54.252C88.648 54.5133 88.8253 54.8307 88.928 55.204C89.0307 55.5773 89.082 55.9927 89.082 56.45V60.79C88.7833 60.8553 88.368 60.93 87.836 61.014C87.304 61.1073 86.66 61.154 85.904 61.154C85.428 61.154 84.994 61.112 84.602 61.028C84.2193 60.944 83.888 60.8087 83.608 60.622C83.328 60.426 83.1133 60.174 82.964 59.866C82.8147 59.558 82.74 59.18 82.74 58.732C82.74 58.3027 82.824 57.9387 82.992 57.64C83.1693 57.3413 83.4027 57.1033 83.692 56.926C83.9813 56.7487 84.3127 56.6227 84.686 56.548C85.0593 56.464 85.4467 56.422 85.848 56.422C86.1187 56.422 86.3567 56.436 86.562 56.464C86.7767 56.4827 86.9493 56.5107 87.08 56.548V56.352C87.08 55.9973 86.9727 55.7127 86.758 55.498C86.5433 55.2833 86.17 55.176 85.638 55.176C85.2833 55.176 84.9333 55.204 84.588 55.26C84.2427 55.3067 83.944 55.3767 83.692 55.47L83.426 53.79C83.5473 53.7527 83.6967 53.7153 83.874 53.678C84.0607 53.6313 84.2613 53.594 84.476 53.566C84.6907 53.5287 84.9147 53.5007 85.148 53.482C85.3907 53.454 85.6333 53.44 85.876 53.44ZM93.0543 61H90.9683V53.636H93.0543V61ZM93.2503 51.508C93.2503 51.8907 93.1243 52.194 92.8723 52.418C92.6296 52.6327 92.3403 52.74 92.0043 52.74C91.6683 52.74 91.3743 52.6327 91.1223 52.418C90.8796 52.194 90.7583 51.8907 90.7583 51.508C90.7583 51.1253 90.8796 50.8267 91.1223 50.612C91.3743 50.388 91.6683 50.276 92.0043 50.276C92.3403 50.276 92.6296 50.388 92.8723 50.612C93.1243 50.8267 93.2503 51.1253 93.2503 51.508ZM97.9552 61.14C97.3485 61.1307 96.8538 61.0653 96.4712 60.944C96.0978 60.8227 95.7992 60.6547 95.5752 60.44C95.3605 60.216 95.2112 59.95 95.1272 59.642C95.0525 59.3247 95.0152 58.97 95.0152 58.578V50.472L97.1012 50.136V58.158C97.1012 58.3447 97.1152 58.5127 97.1432 58.662C97.1712 58.8113 97.2225 58.9373 97.2972 59.04C97.3812 59.1427 97.4978 59.2267 97.6472 59.292C97.7965 59.3573 97.9972 59.3993 98.2492 59.418L97.9552 61.14ZM101.559 59.502C101.942 59.502 102.212 59.4647 102.371 59.39C102.53 59.3153 102.609 59.1707 102.609 58.956C102.609 58.788 102.506 58.6433 102.301 58.522C102.096 58.3913 101.783 58.2467 101.363 58.088C101.036 57.9667 100.738 57.8407 100.467 57.71C100.206 57.5793 99.9815 57.4253 99.7948 57.248C99.6082 57.0613 99.4635 56.842 99.3608 56.59C99.2582 56.338 99.2068 56.0347 99.2068 55.68C99.2068 54.9893 99.4635 54.4433 99.9768 54.042C100.49 53.6407 101.195 53.44 102.091 53.44C102.539 53.44 102.968 53.482 103.379 53.566C103.79 53.6407 104.116 53.7247 104.359 53.818L103.995 55.442C103.752 55.358 103.486 55.2833 103.197 55.218C102.917 55.1527 102.6 55.12 102.245 55.12C101.592 55.12 101.265 55.302 101.265 55.666C101.265 55.75 101.279 55.8247 101.307 55.89C101.335 55.9553 101.391 56.0207 101.475 56.086C101.559 56.142 101.671 56.2073 101.811 56.282C101.96 56.3473 102.147 56.422 102.371 56.506C102.828 56.674 103.206 56.842 103.505 57.01C103.804 57.1687 104.037 57.346 104.205 57.542C104.382 57.7287 104.504 57.9387 104.569 58.172C104.644 58.4053 104.681 58.676 104.681 58.984C104.681 59.712 104.406 60.2627 103.855 60.636C103.314 61.0093 102.544 61.196 101.545 61.196C100.892 61.196 100.346 61.14 99.9068 61.028C99.4775 60.916 99.1788 60.8227 99.0108 60.748L99.3608 59.054C99.7155 59.194 100.08 59.306 100.453 59.39C100.826 59.4647 101.195 59.502 101.559 59.502Z" fill="#2271B6"/>
<path d="M139.032 51.186C140.479 51.186 141.589 51.4427 142.364 51.956C143.139 52.46 143.526 53.2907 143.526 54.448C143.526 55.6147 143.134 56.4593 142.35 56.982C141.566 57.4953 140.446 57.752 138.99 57.752H138.304V61H136.12V51.438C136.596 51.3447 137.1 51.2793 137.632 51.242C138.164 51.2047 138.631 51.186 139.032 51.186ZM139.172 53.048C139.013 53.048 138.855 53.0527 138.696 53.062C138.547 53.0713 138.416 53.0807 138.304 53.09V55.89H138.99C139.746 55.89 140.315 55.7873 140.698 55.582C141.081 55.3767 141.272 54.994 141.272 54.434C141.272 54.1633 141.221 53.9393 141.118 53.762C141.025 53.5847 140.885 53.4447 140.698 53.342C140.521 53.23 140.301 53.1553 140.04 53.118C139.779 53.0713 139.489 53.048 139.172 53.048ZM147.53 59.544C147.736 59.544 147.932 59.5393 148.118 59.53C148.305 59.5207 148.454 59.5067 148.566 59.488V57.906C148.482 57.8873 148.356 57.8687 148.188 57.85C148.02 57.8313 147.866 57.822 147.726 57.822C147.53 57.822 147.344 57.836 147.166 57.864C146.998 57.8827 146.849 57.9247 146.718 57.99C146.588 58.0553 146.485 58.144 146.41 58.256C146.336 58.368 146.298 58.508 146.298 58.676C146.298 59.0027 146.406 59.2313 146.62 59.362C146.844 59.4833 147.148 59.544 147.53 59.544ZM147.362 53.44C147.978 53.44 148.492 53.51 148.902 53.65C149.313 53.79 149.64 53.9907 149.882 54.252C150.134 54.5133 150.312 54.8307 150.414 55.204C150.517 55.5773 150.568 55.9927 150.568 56.45V60.79C150.27 60.8553 149.854 60.93 149.322 61.014C148.79 61.1073 148.146 61.154 147.39 61.154C146.914 61.154 146.48 61.112 146.088 61.028C145.706 60.944 145.374 60.8087 145.094 60.622C144.814 60.426 144.6 60.174 144.45 59.866C144.301 59.558 144.226 59.18 144.226 58.732C144.226 58.3027 144.31 57.9387 144.478 57.64C144.656 57.3413 144.889 57.1033 145.178 56.926C145.468 56.7487 145.799 56.6227 146.172 56.548C146.546 56.464 146.933 56.422 147.334 56.422C147.605 56.422 147.843 56.436 148.048 56.464C148.263 56.4827 148.436 56.5107 148.566 56.548V56.352C148.566 55.9973 148.459 55.7127 148.244 55.498C148.03 55.2833 147.656 55.176 147.124 55.176C146.77 55.176 146.42 55.204 146.074 55.26C145.729 55.3067 145.43 55.3767 145.178 55.47L144.912 53.79C145.034 53.7527 145.183 53.7153 145.36 53.678C145.547 53.6313 145.748 53.594 145.962 53.566C146.177 53.5287 146.401 53.5007 146.634 53.482C146.877 53.454 147.12 53.44 147.362 53.44ZM152.105 57.318C152.105 56.786 152.189 56.2867 152.357 55.82C152.534 55.344 152.786 54.9333 153.113 54.588C153.439 54.2333 153.836 53.9533 154.303 53.748C154.769 53.5427 155.301 53.44 155.899 53.44C156.291 53.44 156.65 53.4773 156.977 53.552C157.303 53.6173 157.621 53.7153 157.929 53.846L157.495 55.512C157.299 55.4373 157.084 55.372 156.851 55.316C156.617 55.26 156.356 55.232 156.067 55.232C155.451 55.232 154.989 55.4233 154.681 55.806C154.382 56.1887 154.233 56.6927 154.233 57.318C154.233 57.9807 154.373 58.494 154.653 58.858C154.942 59.222 155.441 59.404 156.151 59.404C156.403 59.404 156.673 59.3807 156.963 59.334C157.252 59.2873 157.518 59.2127 157.761 59.11L158.055 60.818C157.812 60.9207 157.509 61.0093 157.145 61.084C156.781 61.1587 156.379 61.196 155.941 61.196C155.269 61.196 154.69 61.098 154.205 60.902C153.719 60.6967 153.318 60.4213 153.001 60.076C152.693 59.7307 152.464 59.3247 152.315 58.858C152.175 58.382 152.105 57.8687 152.105 57.318ZM161.541 56.296C161.746 56.072 161.956 55.8387 162.171 55.596C162.395 55.3533 162.609 55.1153 162.815 54.882C163.02 54.6393 163.211 54.4107 163.389 54.196C163.575 53.9813 163.734 53.7947 163.865 53.636H166.343C165.848 54.2053 165.363 54.7513 164.887 55.274C164.42 55.7873 163.907 56.3193 163.347 56.87C163.627 57.122 163.916 57.4253 164.215 57.78C164.513 58.1253 164.803 58.4847 165.083 58.858C165.363 59.2313 165.619 59.6047 165.853 59.978C166.086 60.3513 166.282 60.692 166.441 61H164.047C163.897 60.7573 163.725 60.4913 163.529 60.202C163.342 59.9033 163.141 59.6093 162.927 59.32C162.712 59.0213 162.483 58.7367 162.241 58.466C162.007 58.1953 161.774 57.9667 161.541 57.78V61H159.455V50.472L161.541 50.136V56.296ZM170.239 59.544C170.445 59.544 170.641 59.5393 170.827 59.53C171.014 59.5207 171.163 59.5067 171.275 59.488V57.906C171.191 57.8873 171.065 57.8687 170.897 57.85C170.729 57.8313 170.575 57.822 170.435 57.822C170.239 57.822 170.053 57.836 169.875 57.864C169.707 57.8827 169.558 57.9247 169.427 57.99C169.297 58.0553 169.194 58.144 169.119 58.256C169.045 58.368 169.007 58.508 169.007 58.676C169.007 59.0027 169.115 59.2313 169.329 59.362C169.553 59.4833 169.857 59.544 170.239 59.544ZM170.071 53.44C170.687 53.44 171.201 53.51 171.611 53.65C172.022 53.79 172.349 53.9907 172.591 54.252C172.843 54.5133 173.021 54.8307 173.123 55.204C173.226 55.5773 173.277 55.9927 173.277 56.45V60.79C172.979 60.8553 172.563 60.93 172.031 61.014C171.499 61.1073 170.855 61.154 170.099 61.154C169.623 61.154 169.189 61.112 168.797 61.028C168.415 60.944 168.083 60.8087 167.803 60.622C167.523 60.426 167.309 60.174 167.159 59.866C167.01 59.558 166.935 59.18 166.935 58.732C166.935 58.3027 167.019 57.9387 167.187 57.64C167.365 57.3413 167.598 57.1033 167.887 56.926C168.177 56.7487 168.508 56.6227 168.881 56.548C169.255 56.464 169.642 56.422 170.043 56.422C170.314 56.422 170.552 56.436 170.757 56.464C170.972 56.4827 171.145 56.5107 171.275 56.548V56.352C171.275 55.9973 171.168 55.7127 170.953 55.498C170.739 55.2833 170.365 55.176 169.833 55.176C169.479 55.176 169.129 55.204 168.783 55.26C168.438 55.3067 168.139 55.3767 167.887 55.47L167.621 53.79C167.743 53.7527 167.892 53.7153 168.069 53.678C168.256 53.6313 168.457 53.594 168.671 53.566C168.886 53.5287 169.11 53.5007 169.343 53.482C169.586 53.454 169.829 53.44 170.071 53.44ZM176.942 57.08C176.942 58.2467 177.413 58.83 178.356 58.83C178.57 58.83 178.771 58.802 178.958 58.746C179.144 58.69 179.303 58.6247 179.434 58.55V55.218C179.331 55.1993 179.21 55.1853 179.07 55.176C178.93 55.1573 178.766 55.148 178.58 55.148C178.029 55.148 177.618 55.33 177.348 55.694C177.077 56.058 176.942 56.52 176.942 57.08ZM181.52 60.076C181.52 61.28 181.212 62.1713 180.596 62.75C179.989 63.338 179.046 63.632 177.768 63.632C177.32 63.632 176.872 63.59 176.424 63.506C175.976 63.4313 175.56 63.3287 175.178 63.198L175.542 61.448C175.868 61.5787 176.209 61.6813 176.564 61.756C176.928 61.8307 177.338 61.868 177.796 61.868C178.393 61.868 178.813 61.7373 179.056 61.476C179.308 61.2147 179.434 60.8787 179.434 60.468V60.202C179.21 60.3047 178.976 60.384 178.734 60.44C178.5 60.4867 178.244 60.51 177.964 60.51C176.946 60.51 176.167 60.2113 175.626 59.614C175.084 59.0073 174.814 58.1627 174.814 57.08C174.814 56.5387 174.898 56.0487 175.066 55.61C175.234 55.162 175.476 54.7793 175.794 54.462C176.12 54.1447 176.517 53.902 176.984 53.734C177.45 53.5567 177.978 53.468 178.566 53.468C178.818 53.468 179.074 53.482 179.336 53.51C179.606 53.5287 179.872 53.5567 180.134 53.594C180.395 53.6313 180.642 53.678 180.876 53.734C181.118 53.7807 181.333 53.832 181.52 53.888V60.076ZM183.126 57.374C183.126 56.7207 183.224 56.1513 183.42 55.666C183.625 55.1713 183.891 54.7607 184.218 54.434C184.545 54.1073 184.918 53.86 185.338 53.692C185.767 53.524 186.206 53.44 186.654 53.44C187.699 53.44 188.525 53.762 189.132 54.406C189.739 55.0407 190.042 55.9787 190.042 57.22C190.042 57.3413 190.037 57.4767 190.028 57.626C190.019 57.766 190.009 57.892 190 58.004H185.268C185.315 58.4333 185.515 58.774 185.87 59.026C186.225 59.278 186.701 59.404 187.298 59.404C187.681 59.404 188.054 59.3713 188.418 59.306C188.791 59.2313 189.095 59.1427 189.328 59.04L189.608 60.734C189.496 60.79 189.347 60.846 189.16 60.902C188.973 60.958 188.763 61.0047 188.53 61.042C188.306 61.0887 188.063 61.126 187.802 61.154C187.541 61.182 187.279 61.196 187.018 61.196C186.355 61.196 185.777 61.098 185.282 60.902C184.797 60.706 184.391 60.44 184.064 60.104C183.747 59.7587 183.509 59.3527 183.35 58.886C183.201 58.4193 183.126 57.9153 183.126 57.374ZM188.026 56.576C188.017 56.3987 187.984 56.226 187.928 56.058C187.881 55.89 187.802 55.7407 187.69 55.61C187.587 55.4793 187.452 55.372 187.284 55.288C187.125 55.204 186.925 55.162 186.682 55.162C186.449 55.162 186.248 55.204 186.08 55.288C185.912 55.3627 185.772 55.4653 185.66 55.596C185.548 55.7267 185.459 55.8807 185.394 56.058C185.338 56.226 185.296 56.3987 185.268 56.576H188.026ZM198.067 51.186C199.514 51.186 200.624 51.4427 201.399 51.956C202.174 52.46 202.561 53.2907 202.561 54.448C202.561 55.6147 202.169 56.4593 201.385 56.982C200.601 57.4953 199.481 57.752 198.025 57.752H197.339V61H195.155V51.438C195.631 51.3447 196.135 51.2793 196.667 51.242C197.199 51.2047 197.666 51.186 198.067 51.186ZM198.207 53.048C198.048 53.048 197.89 53.0527 197.731 53.062C197.582 53.0713 197.451 53.0807 197.339 53.09V55.89H198.025C198.781 55.89 199.35 55.7873 199.733 55.582C200.116 55.3767 200.307 54.994 200.307 54.434C200.307 54.1633 200.256 53.9393 200.153 53.762C200.06 53.5847 199.92 53.4447 199.733 53.342C199.556 53.23 199.336 53.1553 199.075 53.118C198.814 53.0713 198.524 53.048 198.207 53.048ZM208.463 55.484C208.276 55.4373 208.057 55.3907 207.805 55.344C207.553 55.288 207.282 55.26 206.993 55.26C206.862 55.26 206.704 55.274 206.517 55.302C206.34 55.3207 206.204 55.344 206.111 55.372V61H204.025V54.028C204.398 53.8973 204.837 53.776 205.341 53.664C205.854 53.5427 206.424 53.482 207.049 53.482C207.161 53.482 207.296 53.4913 207.455 53.51C207.614 53.5193 207.772 53.538 207.931 53.566C208.09 53.5847 208.248 53.6127 208.407 53.65C208.566 53.678 208.701 53.7153 208.813 53.762L208.463 55.484ZM209.444 57.374C209.444 56.7207 209.542 56.1513 209.738 55.666C209.944 55.1713 210.21 54.7607 210.536 54.434C210.863 54.1073 211.236 53.86 211.656 53.692C212.086 53.524 212.524 53.44 212.972 53.44C214.018 53.44 214.844 53.762 215.45 54.406C216.057 55.0407 216.36 55.9787 216.36 57.22C216.36 57.3413 216.356 57.4767 216.346 57.626C216.337 57.766 216.328 57.892 216.318 58.004H211.586C211.633 58.4333 211.834 58.774 212.188 59.026C212.543 59.278 213.019 59.404 213.616 59.404C213.999 59.404 214.372 59.3713 214.736 59.306C215.11 59.2313 215.413 59.1427 215.646 59.04L215.926 60.734C215.814 60.79 215.665 60.846 215.478 60.902C215.292 60.958 215.082 61.0047 214.848 61.042C214.624 61.0887 214.382 61.126 214.12 61.154C213.859 61.182 213.598 61.196 213.336 61.196C212.674 61.196 212.095 61.098 211.6 60.902C211.115 60.706 210.709 60.44 210.382 60.104C210.065 59.7587 209.827 59.3527 209.668 58.886C209.519 58.4193 209.444 57.9153 209.444 57.374ZM214.344 56.576C214.335 56.3987 214.302 56.226 214.246 56.058C214.2 55.89 214.12 55.7407 214.008 55.61C213.906 55.4793 213.77 55.372 213.602 55.288C213.444 55.204 213.243 55.162 213 55.162C212.767 55.162 212.566 55.204 212.398 55.288C212.23 55.3627 212.09 55.4653 211.978 55.596C211.866 55.7267 211.778 55.8807 211.712 56.058C211.656 56.226 211.614 56.3987 211.586 56.576H214.344ZM221.162 50.136C221.554 50.136 221.914 50.178 222.24 50.262C222.567 50.3367 222.819 50.4113 222.996 50.486L222.59 52.152C222.404 52.068 222.198 52.0073 221.974 51.97C221.76 51.9233 221.559 51.9 221.372 51.9C221.12 51.9 220.906 51.9373 220.728 52.012C220.56 52.0773 220.425 52.1707 220.322 52.292C220.229 52.4133 220.159 52.558 220.112 52.726C220.075 52.894 220.056 53.076 220.056 53.272V53.636H222.632V55.372H220.056V61H217.97V53.244C217.97 52.292 218.236 51.536 218.768 50.976C219.31 50.416 220.108 50.136 221.162 50.136ZM223.417 57.374C223.417 56.7207 223.515 56.1513 223.711 55.666C223.916 55.1713 224.182 54.7607 224.509 54.434C224.836 54.1073 225.209 53.86 225.629 53.692C226.058 53.524 226.497 53.44 226.945 53.44C227.99 53.44 228.816 53.762 229.423 54.406C230.03 55.0407 230.333 55.9787 230.333 57.22C230.333 57.3413 230.328 57.4767 230.319 57.626C230.31 57.766 230.3 57.892 230.291 58.004H225.559C225.606 58.4333 225.806 58.774 226.161 59.026C226.516 59.278 226.992 59.404 227.589 59.404C227.972 59.404 228.345 59.3713 228.709 59.306C229.082 59.2313 229.386 59.1427 229.619 59.04L229.899 60.734C229.787 60.79 229.638 60.846 229.451 60.902C229.264 60.958 229.054 61.0047 228.821 61.042C228.597 61.0887 228.354 61.126 228.093 61.154C227.832 61.182 227.57 61.196 227.309 61.196C226.646 61.196 226.068 61.098 225.573 60.902C225.088 60.706 224.682 60.44 224.355 60.104C224.038 59.7587 223.8 59.3527 223.641 58.886C223.492 58.4193 223.417 57.9153 223.417 57.374ZM228.317 56.576C228.308 56.3987 228.275 56.226 228.219 56.058C228.172 55.89 228.093 55.7407 227.981 55.61C227.878 55.4793 227.743 55.372 227.575 55.288C227.416 55.204 227.216 55.162 226.973 55.162C226.74 55.162 226.539 55.204 226.371 55.288C226.203 55.3627 226.063 55.4653 225.951 55.596C225.839 55.7267 225.75 55.8807 225.685 56.058C225.629 56.226 225.587 56.3987 225.559 56.576H228.317ZM236.381 55.484C236.194 55.4373 235.975 55.3907 235.723 55.344C235.471 55.288 235.2 55.26 234.911 55.26C234.78 55.26 234.622 55.274 234.435 55.302C234.258 55.3207 234.122 55.344 234.029 55.372V61H231.943V54.028C232.316 53.8973 232.755 53.776 233.259 53.664C233.772 53.5427 234.342 53.482 234.967 53.482C235.079 53.482 235.214 53.4913 235.373 53.51C235.532 53.5193 235.69 53.538 235.849 53.566C236.008 53.5847 236.166 53.6127 236.325 53.65C236.484 53.678 236.619 53.7153 236.731 53.762L236.381 55.484ZM237.362 57.374C237.362 56.7207 237.46 56.1513 237.656 55.666C237.862 55.1713 238.128 54.7607 238.454 54.434C238.781 54.1073 239.154 53.86 239.574 53.692C240.004 53.524 240.442 53.44 240.89 53.44C241.936 53.44 242.762 53.762 243.368 54.406C243.975 55.0407 244.278 55.9787 244.278 57.22C244.278 57.3413 244.274 57.4767 244.264 57.626C244.255 57.766 244.246 57.892 244.236 58.004H239.504C239.551 58.4333 239.752 58.774 240.106 59.026C240.461 59.278 240.937 59.404 241.534 59.404C241.917 59.404 242.29 59.3713 242.654 59.306C243.028 59.2313 243.331 59.1427 243.564 59.04L243.844 60.734C243.732 60.79 243.583 60.846 243.396 60.902C243.21 60.958 243 61.0047 242.766 61.042C242.542 61.0887 242.3 61.126 242.038 61.154C241.777 61.182 241.516 61.196 241.254 61.196C240.592 61.196 240.013 61.098 239.518 60.902C239.033 60.706 238.627 60.44 238.3 60.104C237.983 59.7587 237.745 59.3527 237.586 58.886C237.437 58.4193 237.362 57.9153 237.362 57.374ZM242.262 56.576C242.253 56.3987 242.22 56.226 242.164 56.058C242.118 55.89 242.038 55.7407 241.926 55.61C241.824 55.4793 241.688 55.372 241.52 55.288C241.362 55.204 241.161 55.162 240.918 55.162C240.685 55.162 240.484 55.204 240.316 55.288C240.148 55.3627 240.008 55.4653 239.896 55.596C239.784 55.7267 239.696 55.8807 239.63 56.058C239.574 56.226 239.532 56.3987 239.504 56.576H242.262ZM245.888 53.888C246.243 53.7853 246.7 53.692 247.26 53.608C247.82 53.5147 248.408 53.468 249.024 53.468C249.65 53.468 250.168 53.552 250.578 53.72C250.998 53.8787 251.33 54.1073 251.572 54.406C251.815 54.7047 251.988 55.0593 252.09 55.47C252.193 55.8807 252.244 56.338 252.244 56.842V61H250.158V57.094C250.158 56.422 250.07 55.946 249.892 55.666C249.715 55.386 249.384 55.246 248.898 55.246C248.749 55.246 248.59 55.2553 248.422 55.274C248.254 55.2833 248.105 55.2973 247.974 55.316V61H245.888V53.888ZM253.782 57.318C253.782 56.786 253.866 56.2867 254.034 55.82C254.212 55.344 254.464 54.9333 254.79 54.588C255.117 54.2333 255.514 53.9533 255.98 53.748C256.447 53.5427 256.979 53.44 257.576 53.44C257.968 53.44 258.328 53.4773 258.654 53.552C258.981 53.6173 259.298 53.7153 259.606 53.846L259.172 55.512C258.976 55.4373 258.762 55.372 258.528 55.316C258.295 55.26 258.034 55.232 257.744 55.232C257.128 55.232 256.666 55.4233 256.358 55.806C256.06 56.1887 255.91 56.6927 255.91 57.318C255.91 57.9807 256.05 58.494 256.33 58.858C256.62 59.222 257.119 59.404 257.828 59.404C258.08 59.404 258.351 59.3807 258.64 59.334C258.93 59.2873 259.196 59.2127 259.438 59.11L259.732 60.818C259.49 60.9207 259.186 61.0093 258.822 61.084C258.458 61.1587 258.057 61.196 257.618 61.196C256.946 61.196 256.368 61.098 255.882 60.902C255.397 60.6967 254.996 60.4213 254.678 60.076C254.37 59.7307 254.142 59.3247 253.992 58.858C253.852 58.382 253.782 57.8687 253.782 57.318ZM260.427 57.374C260.427 56.7207 260.525 56.1513 260.721 55.666C260.926 55.1713 261.192 54.7607 261.519 54.434C261.846 54.1073 262.219 53.86 262.639 53.692C263.068 53.524 263.507 53.44 263.955 53.44C265 53.44 265.826 53.762 266.433 54.406C267.04 55.0407 267.343 55.9787 267.343 57.22C267.343 57.3413 267.338 57.4767 267.329 57.626C267.32 57.766 267.31 57.892 267.301 58.004H262.569C262.616 58.4333 262.816 58.774 263.171 59.026C263.526 59.278 264.002 59.404 264.599 59.404C264.982 59.404 265.355 59.3713 265.719 59.306C266.092 59.2313 266.396 59.1427 266.629 59.04L266.909 60.734C266.797 60.79 266.648 60.846 266.461 60.902C266.274 60.958 266.064 61.0047 265.831 61.042C265.607 61.0887 265.364 61.126 265.103 61.154C264.842 61.182 264.58 61.196 264.319 61.196C263.656 61.196 263.078 61.098 262.583 60.902C262.098 60.706 261.692 60.44 261.365 60.104C261.048 59.7587 260.81 59.3527 260.651 58.886C260.502 58.4193 260.427 57.9153 260.427 57.374ZM265.327 56.576C265.318 56.3987 265.285 56.226 265.229 56.058C265.182 55.89 265.103 55.7407 264.991 55.61C264.888 55.4793 264.753 55.372 264.585 55.288C264.426 55.204 264.226 55.162 263.983 55.162C263.75 55.162 263.549 55.204 263.381 55.288C263.213 55.3627 263.073 55.4653 262.961 55.596C262.849 55.7267 262.76 55.8807 262.695 56.058C262.639 56.226 262.597 56.3987 262.569 56.576H265.327Z" fill="#2271B6"/>
<path d="M327.032 51.186C328.479 51.186 329.589 51.4427 330.364 51.956C331.139 52.46 331.526 53.2907 331.526 54.448C331.526 55.6147 331.134 56.4593 330.35 56.982C329.566 57.4953 328.446 57.752 326.99 57.752H326.304V61H324.12V51.438C324.596 51.3447 325.1 51.2793 325.632 51.242C326.164 51.2047 326.631 51.186 327.032 51.186ZM327.172 53.048C327.013 53.048 326.855 53.0527 326.696 53.062C326.547 53.0713 326.416 53.0807 326.304 53.09V55.89H326.99C327.746 55.89 328.315 55.7873 328.698 55.582C329.081 55.3767 329.272 54.994 329.272 54.434C329.272 54.1633 329.221 53.9393 329.118 53.762C329.025 53.5847 328.885 53.4447 328.698 53.342C328.521 53.23 328.301 53.1553 328.04 53.118C327.779 53.0713 327.489 53.048 327.172 53.048ZM335.53 59.544C335.736 59.544 335.932 59.5393 336.118 59.53C336.305 59.5207 336.454 59.5067 336.566 59.488V57.906C336.482 57.8873 336.356 57.8687 336.188 57.85C336.02 57.8313 335.866 57.822 335.726 57.822C335.53 57.822 335.344 57.836 335.166 57.864C334.998 57.8827 334.849 57.9247 334.718 57.99C334.588 58.0553 334.485 58.144 334.41 58.256C334.336 58.368 334.298 58.508 334.298 58.676C334.298 59.0027 334.406 59.2313 334.62 59.362C334.844 59.4833 335.148 59.544 335.53 59.544ZM335.362 53.44C335.978 53.44 336.492 53.51 336.902 53.65C337.313 53.79 337.64 53.9907 337.882 54.252C338.134 54.5133 338.312 54.8307 338.414 55.204C338.517 55.5773 338.568 55.9927 338.568 56.45V60.79C338.27 60.8553 337.854 60.93 337.322 61.014C336.79 61.1073 336.146 61.154 335.39 61.154C334.914 61.154 334.48 61.112 334.088 61.028C333.706 60.944 333.374 60.8087 333.094 60.622C332.814 60.426 332.6 60.174 332.45 59.866C332.301 59.558 332.226 59.18 332.226 58.732C332.226 58.3027 332.31 57.9387 332.478 57.64C332.656 57.3413 332.889 57.1033 333.178 56.926C333.468 56.7487 333.799 56.6227 334.172 56.548C334.546 56.464 334.933 56.422 335.334 56.422C335.605 56.422 335.843 56.436 336.048 56.464C336.263 56.4827 336.436 56.5107 336.566 56.548V56.352C336.566 55.9973 336.459 55.7127 336.244 55.498C336.03 55.2833 335.656 55.176 335.124 55.176C334.77 55.176 334.42 55.204 334.074 55.26C333.729 55.3067 333.43 55.3767 333.178 55.47L332.912 53.79C333.034 53.7527 333.183 53.7153 333.36 53.678C333.547 53.6313 333.748 53.594 333.962 53.566C334.177 53.5287 334.401 53.5007 334.634 53.482C334.877 53.454 335.12 53.44 335.362 53.44ZM346.815 53.636C346.395 55.0547 345.956 56.3847 345.499 57.626C345.042 58.8673 344.542 60.0713 344.001 61.238C343.805 61.658 343.609 62.0127 343.413 62.302C343.217 62.6007 343.002 62.8433 342.769 63.03C342.536 63.226 342.27 63.366 341.971 63.45C341.682 63.5433 341.341 63.59 340.949 63.59C340.622 63.59 340.319 63.5573 340.039 63.492C339.768 63.436 339.544 63.3707 339.367 63.296L339.731 61.63C339.946 61.7047 340.137 61.756 340.305 61.784C340.473 61.812 340.65 61.826 340.837 61.826C341.21 61.826 341.495 61.7233 341.691 61.518C341.896 61.322 342.069 61.0467 342.209 60.692C341.733 59.7587 341.257 58.7133 340.781 57.556C340.305 56.3893 339.857 55.0827 339.437 53.636H341.649C341.742 54 341.85 54.3967 341.971 54.826C342.102 55.246 342.237 55.6753 342.377 56.114C342.517 56.5433 342.657 56.9633 342.797 57.374C342.946 57.7847 343.086 58.158 343.217 58.494C343.338 58.158 343.464 57.7847 343.595 57.374C343.726 56.9633 343.852 56.5433 343.973 56.114C344.104 55.6753 344.225 55.246 344.337 54.826C344.458 54.3967 344.566 54 344.659 53.636H346.815ZM351.979 57.094C351.979 56.422 351.89 55.946 351.713 55.666C351.545 55.386 351.251 55.246 350.831 55.246C350.7 55.246 350.565 55.2553 350.425 55.274C350.285 55.2833 350.15 55.2973 350.019 55.316V61H347.933V53.888C348.11 53.8413 348.316 53.7947 348.549 53.748C348.792 53.692 349.044 53.6453 349.305 53.608C349.576 53.5613 349.851 53.5287 350.131 53.51C350.411 53.482 350.686 53.468 350.957 53.468C351.489 53.468 351.918 53.538 352.245 53.678C352.581 53.8087 352.856 53.9673 353.071 54.154C353.37 53.9393 353.71 53.7713 354.093 53.65C354.485 53.5287 354.844 53.468 355.171 53.468C355.759 53.468 356.24 53.552 356.613 53.72C356.996 53.8787 357.299 54.1073 357.523 54.406C357.747 54.7047 357.901 55.0593 357.985 55.47C358.069 55.8807 358.111 56.338 358.111 56.842V61H356.025V57.094C356.025 56.422 355.936 55.946 355.759 55.666C355.591 55.386 355.297 55.246 354.877 55.246C354.765 55.246 354.606 55.274 354.401 55.33C354.205 55.386 354.042 55.456 353.911 55.54C353.976 55.7547 354.018 55.9833 354.037 56.226C354.056 56.4593 354.065 56.7113 354.065 56.982V61H351.979V57.094ZM359.655 57.374C359.655 56.7207 359.753 56.1513 359.949 55.666C360.155 55.1713 360.421 54.7607 360.747 54.434C361.074 54.1073 361.447 53.86 361.867 53.692C362.297 53.524 362.735 53.44 363.183 53.44C364.229 53.44 365.055 53.762 365.661 54.406C366.268 55.0407 366.571 55.9787 366.571 57.22C366.571 57.3413 366.567 57.4767 366.557 57.626C366.548 57.766 366.539 57.892 366.529 58.004H361.797C361.844 58.4333 362.045 58.774 362.399 59.026C362.754 59.278 363.23 59.404 363.827 59.404C364.21 59.404 364.583 59.3713 364.947 59.306C365.321 59.2313 365.624 59.1427 365.857 59.04L366.137 60.734C366.025 60.79 365.876 60.846 365.689 60.902C365.503 60.958 365.293 61.0047 365.059 61.042C364.835 61.0887 364.593 61.126 364.331 61.154C364.07 61.182 363.809 61.196 363.547 61.196C362.885 61.196 362.306 61.098 361.811 60.902C361.326 60.706 360.92 60.44 360.593 60.104C360.276 59.7587 360.038 59.3527 359.879 58.886C359.73 58.4193 359.655 57.9153 359.655 57.374ZM364.555 56.576C364.546 56.3987 364.513 56.226 364.457 56.058C364.411 55.89 364.331 55.7407 364.219 55.61C364.117 55.4793 363.981 55.372 363.813 55.288C363.655 55.204 363.454 55.162 363.211 55.162C362.978 55.162 362.777 55.204 362.609 55.288C362.441 55.3627 362.301 55.4653 362.189 55.596C362.077 55.7267 361.989 55.8807 361.923 56.058C361.867 56.226 361.825 56.3987 361.797 56.576H364.555ZM368.181 53.888C368.536 53.7853 368.993 53.692 369.553 53.608C370.113 53.5147 370.701 53.468 371.317 53.468C371.943 53.468 372.461 53.552 372.871 53.72C373.291 53.8787 373.623 54.1073 373.865 54.406C374.108 54.7047 374.281 55.0593 374.383 55.47C374.486 55.8807 374.537 56.338 374.537 56.842V61H372.451V57.094C372.451 56.422 372.363 55.946 372.185 55.666C372.008 55.386 371.677 55.246 371.191 55.246C371.042 55.246 370.883 55.2553 370.715 55.274C370.547 55.2833 370.398 55.2973 370.267 55.316V61H368.181V53.888ZM376.355 51.802L378.441 51.466V53.636H380.947V55.372H378.441V57.962C378.441 58.4007 378.516 58.7507 378.665 59.012C378.824 59.2733 379.137 59.404 379.603 59.404C379.827 59.404 380.056 59.3853 380.289 59.348C380.532 59.3013 380.751 59.2407 380.947 59.166L381.241 60.79C380.989 60.8927 380.709 60.9813 380.401 61.056C380.093 61.1307 379.715 61.168 379.267 61.168C378.698 61.168 378.227 61.0933 377.853 60.944C377.48 60.7853 377.181 60.5707 376.957 60.3C376.733 60.02 376.575 59.684 376.481 59.292C376.397 58.9 376.355 58.466 376.355 57.99V51.802Z" fill="#202020"/>
<circle cx="19" cy="19" r="19" fill="#2271B6"/>
<path d="M12 20L15.5264 22.8211C16.3537 23.483 17.5536 23.3848 18.2624 22.5973L26 14" stroke="white" stroke-width="5" stroke-linecap="round" stroke-linejoin="round"/>
<rect x="49" y="18" width="108" height="2" rx="1" fill="#2271B6"/>
<circle cx="192" cy="19" r="19" fill="#2271B6"/>
<circle cx="192" cy="19" r="10" fill="white"/>
<rect x="226" y="18" width="108" height="2" rx="1" fill="#D9D9D9"/>
<circle cx="362" cy="19" r="19" fill="#D9D9D9"/>
</svg>
