<svg width="122" height="119" viewBox="0 0 122 119" fill="none" xmlns="http://www.w3.org/2000/svg">
<path d="M116.853 69.8521L116.817 69.8702C112.532 73.1561 110.717 78.7476 112.242 83.9219L112.26 83.9583C114.693 92.1824 108.665 100.479 100.096 100.697H100.06C94.6498 100.842 89.8932 104.291 88.0958 109.393V109.411C85.2272 117.508 75.4603 120.685 68.3981 115.801C64.0128 112.807 58.2157 112.65 53.6019 115.801H53.5839C46.5219 120.667 36.7545 117.508 33.9042 109.393C32.0907 104.278 27.3412 100.842 21.9403 100.697H21.9039C13.3351 100.479 7.3075 92.1822 9.74036 83.9581L9.75842 83.9217C11.2831 78.7474 9.46765 73.1558 5.18347 69.8699L5.14709 69.8519C-1.66101 64.6231 -1.66101 54.3841 5.14709 49.1556L5.18347 49.1375C9.46765 45.8516 11.2831 40.2598 9.74036 35.0858V35.0494C7.28918 26.8255 13.3348 18.5286 21.9039 18.3108H21.9403C27.3322 18.1656 32.1068 14.7161 33.9042 9.6148V9.59674C36.7543 1.49981 46.5219 -1.67719 53.5839 3.2066H53.6019C58.0497 6.27471 63.9318 6.27471 68.3981 3.2066C75.5314 -1.71943 85.244 1.5484 88.0958 9.59674V9.6148C89.8932 14.6981 94.6495 18.1658 100.06 18.3108H100.096C108.665 18.5286 114.693 26.8255 112.26 35.0494L112.242 35.0858C110.717 40.2598 112.532 45.8516 116.817 49.1375L116.853 49.1556C123.661 54.3841 123.661 64.6233 116.853 69.8521Z" fill="#2271B6"/>
<path d="M61.0002 93.3169C79.6772 93.3169 94.8179 78.1762 94.8179 59.4993C94.8179 40.8223 79.6772 25.6816 61.0002 25.6816C42.3233 25.6816 27.1826 40.8223 27.1826 59.4993C27.1826 78.1762 42.3233 93.3169 61.0002 93.3169Z" fill="#C7A930"/>
<path opacity="0.1" d="M86.9661 37.8516C81.1167 33.0395 73.6331 30.1472 65.4749 30.1472C46.7981 30.1472 31.6492 45.2961 31.6492 63.9729C31.6492 72.1311 34.5415 79.6147 39.3533 85.4641C31.9214 79.2646 27.1875 69.9392 27.1875 59.4983C27.1875 40.8213 42.3235 25.6855 61.0002 25.6855C71.4412 25.6855 80.7666 30.4194 86.9661 37.8516Z" fill="black"/>
<path d="M52.9548 72.7387L45.4765 64.7827C43.518 62.6987 43.6191 59.4221 45.7023 57.4636C47.7856 55.5027 51.0637 55.6079 53.0205 57.6904L56.5903 61.4868L71.7643 44.1435C73.6452 41.9912 76.9167 41.7729 79.0707 43.6565C81.2231 45.54 81.4404 48.8105 79.5578 50.9629L60.6235 72.6023C58.6064 74.9052 55.0466 74.9656 52.9548 72.7387Z" fill="white"/>
</svg>
